<svg xmlns="http://www.w3.org/2000/svg" xmlns:xlink="http://www.w3.org/1999/xlink" width="500" zoomAndPan="magnify" viewBox="0 0 375 374.999991" height="500" preserveAspectRatio="xMidYMid meet" version="1.0"><defs><clipPath id="c2e8b77ca1"><path d="M 138.285156 287.765625 L 237.3125 287.765625 L 237.3125 290.257812 L 138.285156 290.257812 Z M 138.285156 287.765625 " clip-rule="nonzero"/></clipPath><clipPath id="097c1b7367"><path d="M 59.292969 190 L 247 190 L 247 253 L 59.292969 253 Z M 59.292969 190 " clip-rule="nonzero"/></clipPath><clipPath id="c772cc8b95"><path d="M 241.234375 132.039062 L 315.480469 132.039062 L 315.480469 214.34375 L 241.234375 214.34375 Z M 241.234375 132.039062 " clip-rule="nonzero"/></clipPath><clipPath id="00051202c7"><path d="M 130 167 L 170.058594 167 L 170.058594 215 L 130 215 Z M 130 167 " clip-rule="nonzero"/></clipPath><clipPath id="b4d47ee41b"><path d="M 113.808594 188 L 132 188 L 132 193 L 113.808594 193 Z M 113.808594 188 " clip-rule="nonzero"/></clipPath><clipPath id="c6b45b4ab3"><path d="M 147 159.789062 L 161 159.789062 L 161 167 L 147 167 Z M 147 159.789062 " clip-rule="nonzero"/></clipPath><clipPath id="b0d928414a"><path d="M 150 84.558594 L 222 84.558594 L 222 120 L 150 120 Z M 150 84.558594 " clip-rule="nonzero"/></clipPath><clipPath id="3f79407c8d"><path d="M 129.136719 113 L 242.386719 113 L 242.386719 139.308594 L 129.136719 139.308594 Z M 129.136719 113 " clip-rule="nonzero"/></clipPath><clipPath id="699896868a"><path d="M 171 166 L 218 166 L 218 213 L 171 213 Z M 171 166 " clip-rule="nonzero"/></clipPath><clipPath id="97d334f658"><path d="M 205.140625 139.5625 L 251.285156 176.726562 L 208.003906 230.464844 L 161.859375 193.300781 Z M 205.140625 139.5625 " clip-rule="nonzero"/></clipPath><clipPath id="5b05090fde"><path d="M 205.140625 139.5625 L 251.285156 176.726562 L 208.003906 230.464844 L 161.859375 193.300781 Z M 205.140625 139.5625 " clip-rule="nonzero"/></clipPath><clipPath id="0ccef48e4d"><path d="M 213 163 L 245 163 L 245 195 L 213 195 Z M 213 163 " clip-rule="nonzero"/></clipPath><clipPath id="39d8ff7acb"><path d="M 205.140625 139.5625 L 251.285156 176.726562 L 208.003906 230.464844 L 161.859375 193.300781 Z M 205.140625 139.5625 " clip-rule="nonzero"/></clipPath><clipPath id="f021e57547"><path d="M 205.140625 139.5625 L 251.285156 176.726562 L 208.003906 230.464844 L 161.859375 193.300781 Z M 205.140625 139.5625 " clip-rule="nonzero"/></clipPath></defs><rect x="-37.5" width="450" fill="#ffffff" y="-37.499999" height="449.999989" fill-opacity="1"/><rect x="-37.5" width="450" fill="#2f4157" y="-37.499999" height="449.999989" fill-opacity="1"/><g clip-path="url(#c2e8b77ca1)"><path fill="#f9f7f5" d="M 235.890625 287.921875 L 139.617188 287.921875 C 138.933594 287.921875 138.382812 288.472656 138.382812 289.15625 C 138.382812 289.839844 138.933594 290.394531 139.617188 290.394531 L 235.890625 290.394531 C 236.574219 290.394531 237.128906 289.839844 237.128906 289.15625 C 237.128906 288.472656 236.574219 287.921875 235.890625 287.921875 " fill-opacity="1" fill-rule="nonzero"/></g><path fill="#f9f7f5" d="M 211.761719 250.3125 L 163.746094 250.3125 C 183.480469 255.914062 186.828125 273.492188 173.789062 283.15625 C 172.328125 284.242188 170.757812 285.136719 169.105469 285.855469 L 206.402344 285.855469 C 204.753906 285.136719 203.179688 284.242188 201.71875 283.15625 C 188.679688 273.492188 192.027344 255.914062 211.761719 250.3125 " fill-opacity="1" fill-rule="nonzero"/><path fill="#f9f7f5" d="M 269.90625 144.007812 L 105.605469 144.007812 C 102.355469 144.007812 99.71875 146.644531 99.71875 149.894531 L 99.71875 231.914062 C 102.539062 231.984375 105.527344 231.953125 108.667969 231.816406 L 108.667969 152.957031 L 266.84375 152.957031 L 266.84375 179.074219 C 270.011719 177.0625 273 175.050781 275.789062 173.050781 L 275.789062 149.894531 C 275.789062 146.644531 273.15625 144.007812 269.90625 144.007812 " fill-opacity="1" fill-rule="nonzero"/><path fill="#f9f7f5" d="M 266.84375 238.117188 L 162.507812 238.117188 C 140.925781 243.550781 121.097656 246.539062 104.730469 247 C 105.015625 247.042969 105.308594 247.066406 105.605469 247.066406 L 269.90625 247.066406 C 273.15625 247.066406 275.789062 244.433594 275.789062 241.183594 L 275.789062 190.605469 C 272.933594 192.453125 269.949219 194.296875 266.84375 196.132812 L 266.84375 238.117188 " fill-opacity="1" fill-rule="nonzero"/><g clip-path="url(#097c1b7367)"><path fill="#c7d9e5" d="M 229.902344 201.453125 L 213.351562 200.554688 L 217.792969 209.316406 C 211.269531 212.035156 204.496094 214.664062 197.507812 217.167969 C 133.964844 239.957031 77.242188 243.898438 70.816406 225.976562 C 67.546875 216.855469 77.933594 203.828125 97.300781 190.230469 L 97.300781 190.027344 C 70.703125 207.667969 55.976562 225.417969 60.421875 237.8125 C 68.179688 259.449219 131.441406 256.5625 201.722656 231.363281 C 209.566406 228.550781 217.167969 225.578125 224.46875 222.488281 L 228.339844 230.121094 L 246.453125 202.355469 L 229.902344 201.453125 " fill-opacity="1" fill-rule="nonzero"/></g><g clip-path="url(#c772cc8b95)"><path fill="#7d99a7" d="M 314.921875 146.554688 C 311.003906 135.625 292.925781 130.953125 266.941406 132.25 C 285.535156 131.925781 298.097656 135.578125 300.925781 143.464844 C 305.746094 156.910156 280.890625 178.839844 241.339844 198.578125 L 252.683594 199.199219 L 242.957031 214.109375 C 290.671875 190.96875 321.054688 163.660156 314.921875 146.554688 " fill-opacity="1" fill-rule="nonzero"/></g><path fill="#ffffff" d="M 155.816406 193.414062 L 155.816406 195.96875 L 146.054688 195.96875 C 146.175781 195.027344 146.496094 194.082031 147.015625 193.257812 C 147.535156 192.394531 148.578125 191.253906 150.136719 189.839844 C 151.375 188.699219 152.175781 187.914062 152.457031 187.519531 C 152.855469 186.96875 153.015625 186.378906 153.015625 185.832031 C 153.015625 185.242188 152.855469 184.769531 152.535156 184.414062 C 152.21875 184.101562 151.738281 183.945312 151.175781 183.945312 C 150.578125 183.945312 150.136719 184.101562 149.777344 184.457031 C 149.417969 184.808594 149.214844 185.359375 149.175781 186.183594 L 146.417969 185.910156 C 146.578125 184.414062 147.097656 183.316406 147.976562 182.6875 C 148.855469 182.019531 149.9375 181.703125 151.257812 181.703125 C 152.695312 181.703125 153.816406 182.097656 154.617188 182.84375 C 155.417969 183.589844 155.855469 184.535156 155.855469 185.671875 C 155.855469 186.300781 155.738281 186.929688 155.496094 187.519531 C 155.257812 188.109375 154.898438 188.699219 154.378906 189.328125 C 154.058594 189.761719 153.417969 190.347656 152.578125 191.136719 C 151.695312 191.921875 151.136719 192.433594 150.898438 192.707031 C 150.65625 192.984375 150.457031 193.21875 150.335938 193.453125 L 155.816406 193.453125 Z M 155.816406 193.414062 " fill-opacity="1" fill-rule="nonzero"/><path fill="#ffffff" d="M 163.136719 195.929688 L 163.136719 193.0625 L 157.21875 193.0625 L 157.21875 190.664062 L 163.496094 181.625 L 165.816406 181.625 L 165.816406 190.664062 L 167.617188 190.664062 L 167.617188 193.0625 L 165.816406 193.0625 L 165.816406 195.929688 Z M 163.136719 190.664062 L 163.136719 185.792969 L 159.816406 190.664062 Z M 163.136719 190.664062 " fill-opacity="1" fill-rule="nonzero"/><path fill="#ffffff" d="M 146.503906 201.945312 L 146.503906 196.878906 L 147.542969 196.878906 L 147.542969 198.875 L 149.574219 198.875 L 149.574219 196.878906 L 150.613281 196.878906 L 150.613281 201.945312 L 149.574219 201.945312 L 149.574219 199.726562 L 147.542969 199.726562 L 147.542969 201.945312 Z M 146.503906 201.945312 " fill-opacity="1" fill-rule="nonzero"/><path fill="#ffffff" d="M 151.480469 199.445312 C 151.480469 198.929688 151.5625 198.496094 151.71875 198.148438 C 151.832031 197.898438 151.992188 197.660156 152.203125 197.449219 C 152.402344 197.242188 152.628906 197.085938 152.871094 196.988281 C 153.199219 196.851562 153.566406 196.792969 153.980469 196.792969 C 154.734375 196.792969 155.34375 197.03125 155.796875 197.492188 C 156.253906 197.953125 156.480469 198.59375 156.480469 199.417969 C 156.480469 200.242188 156.253906 200.871094 155.796875 201.332031 C 155.34375 201.789062 154.746094 202.027344 153.980469 202.027344 C 153.210938 202.027344 152.601562 201.804688 152.148438 201.34375 C 151.707031 200.882812 151.480469 200.242188 151.480469 199.445312 Z M 152.558594 199.402344 C 152.558594 199.976562 152.6875 200.410156 152.957031 200.703125 C 153.226562 200.996094 153.566406 201.148438 153.980469 201.148438 C 154.390625 201.148438 154.734375 200.996094 155.003906 200.703125 C 155.273438 200.410156 155.398438 199.960938 155.398438 199.375 C 155.398438 198.789062 155.273438 198.355469 155.015625 198.078125 C 154.761719 197.800781 154.417969 197.644531 153.980469 197.644531 C 153.554688 197.644531 153.210938 197.785156 152.941406 198.078125 C 152.6875 198.386719 152.558594 198.816406 152.558594 199.402344 Z M 152.558594 199.402344 " fill-opacity="1" fill-rule="nonzero"/><path fill="#ffffff" d="M 157.289062 196.878906 L 158.328125 196.878906 L 158.328125 199.613281 C 158.328125 200.046875 158.339844 200.324219 158.371094 200.464844 C 158.414062 200.675781 158.527344 200.839844 158.683594 200.96875 C 158.851562 201.09375 159.082031 201.148438 159.363281 201.148438 C 159.664062 201.148438 159.875 201.09375 160.03125 200.96875 C 160.1875 200.839844 160.273438 200.703125 160.300781 200.535156 C 160.332031 200.367188 160.34375 200.074219 160.34375 199.667969 L 160.34375 196.863281 L 161.382812 196.863281 L 161.382812 199.515625 C 161.382812 200.128906 161.355469 200.546875 161.296875 200.800781 C 161.238281 201.050781 161.140625 201.261719 160.984375 201.429688 C 160.828125 201.59375 160.628906 201.734375 160.375 201.847656 C 160.117188 201.945312 159.789062 202 159.378906 202 C 158.882812 202 158.511719 201.945312 158.257812 201.832031 C 158 201.722656 157.800781 201.582031 157.660156 201.398438 C 157.515625 201.21875 157.417969 201.035156 157.359375 200.839844 C 157.289062 200.546875 157.261719 200.128906 157.261719 199.558594 L 157.261719 196.878906 Z M 157.289062 196.878906 " fill-opacity="1" fill-rule="nonzero"/><path fill="#ffffff" d="M 162.492188 201.945312 L 162.492188 196.878906 L 164.679688 196.878906 C 165.234375 196.878906 165.628906 196.917969 165.871094 197.015625 C 166.128906 197.113281 166.328125 197.269531 166.46875 197.503906 C 166.625 197.742188 166.695312 198.007812 166.695312 198.300781 C 166.695312 198.679688 166.582031 199 166.355469 199.238281 C 166.128906 199.488281 165.785156 199.640625 165.332031 199.695312 C 165.558594 199.824219 165.746094 199.960938 165.886719 200.117188 C 166.027344 200.269531 166.226562 200.546875 166.484375 200.9375 L 167.109375 201.929688 L 165.859375 201.929688 L 165.105469 200.828125 C 164.835938 200.4375 164.648438 200.1875 164.550781 200.085938 C 164.453125 199.988281 164.351562 199.921875 164.238281 199.878906 C 164.125 199.835938 163.953125 199.824219 163.710938 199.824219 L 163.5 199.824219 L 163.5 201.929688 L 162.492188 201.929688 Z M 163.527344 199.011719 L 164.292969 199.011719 C 164.792969 199.011719 165.105469 199 165.234375 198.957031 C 165.359375 198.914062 165.460938 198.84375 165.53125 198.746094 C 165.601562 198.648438 165.628906 198.523438 165.628906 198.371094 C 165.628906 198.203125 165.589844 198.0625 165.488281 197.953125 C 165.390625 197.839844 165.261719 197.785156 165.089844 197.757812 C 165.003906 197.742188 164.75 197.742188 164.335938 197.742188 L 163.527344 197.742188 Z M 163.527344 199.011719 " fill-opacity="1" fill-rule="nonzero"/><g clip-path="url(#00051202c7)"><path fill="#ffffff" d="M 162.085938 212.992188 C 162.175781 212.957031 162.28125 213.007812 162.316406 213.097656 C 162.332031 213.167969 162.367188 213.222656 162.367188 213.238281 C 161.113281 213.75 159.820312 214.105469 158.476562 214.355469 C 157.164062 214.582031 155.820312 214.707031 154.421875 214.742188 C 147.90625 214.9375 141.925781 212.441406 137.550781 208.265625 C 133.109375 204.015625 130.402344 198.015625 130.292969 191.394531 C 130.257812 184.722656 132.933594 178.667969 137.285156 174.261719 C 141.660156 169.835938 147.710938 167.109375 154.421875 167.074219 C 157.535156 167.054688 160.367188 167.5 162.933594 168.417969 C 165.484375 169.320312 167.785156 170.683594 169.910156 172.5625 C 170.035156 172.667969 170.105469 172.808594 170.105469 172.96875 C 170.105469 173.128906 170.050781 173.289062 169.945312 173.394531 C 169.625 173.730469 169.183594 174.207031 168.847656 174.578125 C 168.5625 174.878906 168.105469 174.898438 167.785156 174.632812 C 165.996094 173.074219 164.066406 171.925781 161.945312 171.144531 C 159.660156 170.3125 157.164062 169.925781 154.402344 169.90625 C 148.472656 169.886719 143.09375 172.277344 139.179688 176.136719 C 135.25 180.03125 132.789062 185.414062 132.753906 191.359375 C 132.667969 197.378906 135.054688 202.832031 138.914062 206.847656 C 142.84375 210.957031 148.296875 213.609375 154.402344 213.789062 C 155.75 213.839844 157.078125 213.804688 158.367188 213.679688 C 159.644531 213.59375 160.882812 213.363281 162.085938 212.992188 Z M 162.085938 212.992188 " fill-opacity="1" fill-rule="evenodd"/></g><path fill="#ffffff" d="M 156.6875 172.261719 C 156.828125 171.480469 157.554688 170.96875 158.332031 171.109375 C 159.113281 171.25 159.625 171.976562 159.484375 172.757812 L 158.953125 175.835938 C 158.8125 176.613281 158.085938 177.128906 157.304688 176.988281 C 156.527344 176.84375 156.015625 176.121094 156.15625 175.339844 Z M 156.6875 172.261719 " fill-opacity="1" fill-rule="evenodd"/><path fill="#ffffff" d="M 165.128906 175.410156 C 165.65625 174.820312 166.542969 174.761719 167.132812 175.289062 C 167.726562 175.816406 167.785156 176.703125 167.257812 177.292969 L 165.199219 179.644531 C 164.671875 180.234375 163.785156 180.292969 163.195312 179.765625 C 162.601562 179.238281 162.542969 178.351562 163.070312 177.761719 Z M 165.128906 175.410156 " fill-opacity="1" fill-rule="evenodd"/><path fill="#ffffff" d="M 147.144531 173.503906 C 146.921875 172.742188 147.335938 171.957031 148.097656 171.734375 C 148.855469 171.507812 149.640625 171.925781 149.863281 172.683594 L 150.777344 175.675781 C 151 176.433594 150.585938 177.21875 149.824219 177.441406 C 149.066406 177.667969 148.28125 177.25 148.058594 176.492188 Z M 147.144531 173.503906 " fill-opacity="1" fill-rule="evenodd"/><path fill="#ffffff" d="M 138.570312 180.765625 C 137.914062 180.34375 137.714844 179.460938 138.152344 178.800781 C 138.585938 178.136719 139.453125 177.960938 140.109375 178.382812 L 142.535156 179.949219 C 143.1875 180.371094 143.390625 181.257812 142.953125 181.917969 C 142.519531 182.578125 141.652344 182.757812 140.996094 182.335938 Z M 138.570312 180.765625 " fill-opacity="1" fill-rule="evenodd"/><path fill="#ffffff" d="M 135.726562 190.609375 C 134.9375 190.558594 134.34375 189.898438 134.390625 189.109375 C 134.4375 188.320312 135.097656 187.722656 135.890625 187.773438 L 139.011719 187.933594 C 139.800781 187.984375 140.394531 188.644531 140.347656 189.433594 C 140.300781 190.222656 139.640625 190.820312 138.847656 190.769531 Z M 135.726562 190.609375 " fill-opacity="1" fill-rule="evenodd"/><path fill="#ffffff" d="M 137.730469 199.238281 C 136.984375 199.5 136.179688 199.121094 135.917969 198.375 C 135.65625 197.625 136.035156 196.820312 136.78125 196.558594 L 139.722656 195.5 C 140.46875 195.238281 141.273438 195.617188 141.535156 196.363281 C 141.796875 197.113281 141.417969 197.917969 140.671875 198.179688 Z M 137.730469 199.238281 " fill-opacity="1" fill-rule="evenodd"/><path fill="#ffffff" d="M 143.027344 206.355469 C 142.441406 206.890625 141.554688 206.863281 141.019531 206.277344 C 140.484375 205.695312 140.511719 204.808594 141.097656 204.273438 L 143.378906 202.136719 C 143.964844 201.601562 144.851562 201.632812 145.386719 202.214844 C 145.921875 202.800781 145.894531 203.6875 145.308594 204.222656 Z M 143.027344 206.355469 " fill-opacity="1" fill-rule="evenodd"/><path fill="#ffffff" d="M 151.652344 210.902344 C 151.429688 211.648438 150.636719 212.082031 149.894531 211.871094 C 149.136719 211.644531 148.703125 210.859375 148.925781 210.117188 L 149.917969 206.707031 C 150.144531 205.960938 150.9375 205.53125 151.679688 205.738281 C 152.4375 205.96875 152.871094 206.75 152.644531 207.492188 Z M 151.652344 210.902344 " fill-opacity="1" fill-rule="evenodd"/><path fill="#ffffff" d="M 161.21875 210.445312 C 161.304688 211.230469 160.757812 211.929688 159.96875 212.015625 C 159.183594 212.101562 158.484375 211.554688 158.398438 210.765625 L 158.027344 207.664062 C 157.941406 206.875 158.492188 206.175781 159.277344 206.089844 C 160.066406 206.003906 160.765625 206.554688 160.851562 207.339844 Z M 161.21875 210.445312 " fill-opacity="1" fill-rule="evenodd"/><path fill="#ffffff" d="M 144.347656 170.898438 C 144.347656 170.898438 135.539062 170.707031 131.109375 170.605469 C 131.007812 170.609375 130.933594 170.53125 130.925781 170.429688 C 130.921875 170.324219 131 170.25 131.09375 170.230469 C 136.425781 169.550781 148.460938 168.007812 148.460938 168.007812 Z M 144.347656 170.898438 " fill-opacity="1" fill-rule="evenodd"/><path fill="#ffffff" d="M 133.988281 180.863281 C 133.988281 180.863281 125.066406 180.339844 119.972656 180.046875 C 119.820312 180.042969 119.714844 179.921875 119.703125 179.777344 C 119.695312 179.636719 119.820312 179.507812 119.964844 179.496094 C 125.59375 178.914062 136.113281 177.84375 136.113281 177.84375 Z M 133.988281 180.863281 " fill-opacity="1" fill-rule="evenodd"/><g clip-path="url(#b4d47ee41b)"><path fill="#ffffff" d="M 131.488281 192.050781 C 131.488281 192.050781 119.925781 191.457031 114.183594 191.152344 C 114.058594 191.152344 113.953125 191.03125 113.953125 190.902344 C 113.953125 190.777344 114.046875 190.667969 114.179688 190.640625 C 119.921875 190.027344 131.519531 188.78125 131.519531 188.78125 Z M 131.488281 192.050781 " fill-opacity="1" fill-rule="evenodd"/></g><path fill="#ffffff" d="M 133.855469 202.144531 C 133.855469 202.144531 124.558594 201.578125 119.617188 201.289062 C 119.464844 201.285156 119.351562 201.148438 119.339844 201.003906 C 119.332031 200.863281 119.449219 200.71875 119.589844 200.710938 C 124.324219 200.09375 132.972656 198.941406 132.972656 198.941406 Z M 133.855469 202.144531 " fill-opacity="1" fill-rule="evenodd"/><path fill="#ffffff" d="M 140.015625 209.199219 C 140.015625 209.199219 132.078125 208.992188 127.765625 208.875 C 127.652344 208.867188 127.554688 208.785156 127.539062 208.667969 C 127.523438 208.550781 127.621094 208.441406 127.738281 208.425781 C 131.539062 207.882812 138.019531 206.9375 138.019531 206.9375 Z M 140.015625 209.199219 " fill-opacity="1" fill-rule="evenodd"/><path fill="#ffffff" d="M 152.121094 214.667969 C 152.121094 214.667969 142.347656 214.25 137.265625 214.035156 C 137.175781 214.03125 137.101562 213.953125 137.097656 213.851562 C 137.089844 213.746094 137.167969 213.671875 137.269531 213.667969 C 141.089844 213.371094 147.199219 212.890625 147.199219 212.890625 Z M 152.121094 214.667969 " fill-opacity="1" fill-rule="evenodd"/><g clip-path="url(#c6b45b4ab3)"><path fill="#ffffff" d="M 160.421875 162.472656 L 160.410156 163.660156 C 160.410156 164.003906 160.351562 164.332031 160.214844 164.648438 C 160.082031 164.953125 159.898438 165.242188 159.65625 165.480469 C 159.414062 165.722656 159.132812 165.914062 158.816406 166.039062 C 158.511719 166.160156 158.171875 166.238281 157.832031 166.230469 L 150.5 166.210938 C 149.734375 166.210938 149.027344 165.902344 148.527344 165.394531 C 148.03125 164.886719 147.714844 164.195312 147.714844 163.421875 L 147.714844 162.433594 C 147.714844 161.714844 148.003906 161.0625 148.480469 160.59375 C 148.957031 160.121094 149.601562 159.824219 150.320312 159.824219 L 157.734375 159.777344 C 158.085938 159.777344 158.4375 159.855469 158.753906 159.976562 C 159.085938 160.113281 159.375 160.3125 159.632812 160.5625 C 159.886719 160.8125 160.082031 161.109375 160.214844 161.433594 C 160.351562 161.761719 160.421875 162.117188 160.421875 162.472656 Z M 157.925781 162.472656 C 157.925781 162.421875 157.902344 162.375 157.867188 162.335938 C 157.832031 162.296875 157.78125 162.277344 157.734375 162.277344 L 150.320312 162.277344 C 150.234375 162.277344 150.171875 162.347656 150.171875 162.433594 L 150.171875 163.421875 C 150.171875 163.601562 150.320312 163.753906 150.5 163.753906 L 157.832031 163.753906 C 157.855469 163.753906 157.878906 163.746094 157.890625 163.726562 C 157.902344 163.707031 157.914062 163.6875 157.914062 163.660156 Z M 157.925781 162.472656 " fill-opacity="1" fill-rule="evenodd"/></g><path fill="#ffffff" d="M 157.09375 166.269531 L 157.074219 167.140625 L 157 169.394531 L 153.121094 169.25 L 151.054688 169.25 L 151.078125 166.277344 L 151.078125 164.234375 L 154.792969 163.953125 L 157.074219 164.136719 Z M 153.121094 166.269531 L 153.121094 167.175781 L 153.386719 167.175781 L 153.816406 167.609375 L 154.25 167.175781 L 154.785156 167.175781 L 154.785156 166.269531 L 154.371094 165.535156 L 153.503906 165.808594 Z M 153.121094 166.269531 " fill-opacity="1" fill-rule="evenodd"/><path fill="#7d99a7" d="M 185.835938 104.277344 C 194.085938 104.277344 201.316406 108.625 205.367188 115.152344 C 202.722656 106.890625 194.980469 100.910156 185.835938 100.910156 C 176.695312 100.910156 168.953125 106.890625 166.308594 115.152344 C 170.359375 108.625 177.589844 104.277344 185.835938 104.277344 " fill-opacity="1" fill-rule="nonzero"/><g clip-path="url(#b0d928414a)"><path fill="#7d99a7" d="M 159.40625 110.632812 C 158.339844 113.421875 155.667969 115.269531 152.683594 115.269531 L 150.230469 115.269531 C 150.359375 115.382812 150.484375 115.496094 150.609375 115.613281 C 153.117188 117.984375 156.4375 119.289062 159.960938 119.289062 L 163.425781 119.289062 C 164.160156 107.550781 173.914062 98.257812 185.835938 98.257812 C 197.761719 98.257812 207.515625 107.550781 208.25 119.289062 L 211.714844 119.289062 C 215.238281 119.289062 218.558594 117.984375 221.066406 115.613281 C 221.191406 115.496094 221.316406 115.382812 221.445312 115.269531 L 218.992188 115.269531 C 216.007812 115.269531 213.335938 113.421875 212.269531 110.632812 C 212.082031 110.144531 211.882812 109.660156 211.667969 109.183594 C 210.445312 106.449219 211.011719 103.242188 213.132812 101.125 L 215.242188 99.015625 L 207.539062 91.3125 L 205.429688 93.421875 C 203.308594 95.539062 200.105469 96.109375 197.371094 94.886719 C 196.894531 94.671875 196.410156 94.472656 195.921875 94.285156 C 193.128906 93.222656 191.285156 90.546875 191.285156 87.5625 L 191.285156 84.582031 L 180.390625 84.582031 L 180.390625 87.5625 C 180.390625 90.546875 178.542969 93.222656 175.753906 94.285156 C 175.265625 94.472656 174.78125 94.671875 174.304688 94.886719 C 171.570312 96.109375 168.363281 95.539062 166.246094 93.421875 L 164.136719 91.3125 L 156.433594 99.015625 L 158.542969 101.125 C 160.660156 103.242188 161.230469 106.449219 160.007812 109.183594 C 159.792969 109.660156 159.59375 110.144531 159.40625 110.632812 " fill-opacity="1" fill-rule="nonzero"/></g><g clip-path="url(#3f79407c8d)"><path fill="#7d99a7" d="M 226.554688 126.472656 L 230.453125 119.816406 L 242.539062 119.847656 C 240.269531 116.050781 236.117188 113.507812 231.371094 113.507812 C 227.910156 113.507812 224.765625 114.859375 222.4375 117.0625 C 219.542969 119.792969 215.691406 121.28125 211.714844 121.28125 L 159.960938 121.28125 C 155.984375 121.28125 152.132812 119.792969 149.242188 117.0625 C 146.910156 114.859375 143.765625 113.507812 140.308594 113.507812 C 135.558594 113.507812 131.40625 116.050781 129.136719 119.847656 L 141.222656 119.816406 L 145.121094 126.472656 L 141.300781 133.175781 L 129.148438 133.210938 C 131.425781 136.996094 135.570312 139.527344 140.308594 139.527344 C 143.765625 139.527344 146.910156 138.175781 149.242188 135.976562 C 152.132812 133.242188 155.984375 131.753906 159.960938 131.753906 L 211.714844 131.753906 C 215.691406 131.753906 219.542969 133.242188 222.4375 135.976562 C 224.765625 138.175781 227.910156 139.527344 231.371094 139.527344 C 236.105469 139.527344 240.25 136.996094 242.527344 133.210938 L 230.375 133.175781 L 226.554688 126.472656 " fill-opacity="1" fill-rule="nonzero"/></g><g clip-path="url(#699896868a)"><g clip-path="url(#97d334f658)"><g clip-path="url(#5b05090fde)"><path fill="#7d99a7" d="M 193.359375 201.980469 C 186.667969 201.53125 181.605469 195.742188 182.054688 189.050781 C 182.503906 182.359375 188.292969 177.296875 194.988281 177.746094 C 201.679688 178.195312 206.738281 183.988281 206.289062 190.679688 C 206.273438 190.902344 206.253906 191.121094 206.226562 191.339844 C 206.410156 187.933594 205.007812 184.496094 202.152344 182.195312 C 200.726562 181.046875 199.105469 180.316406 197.429688 179.980469 C 198.601562 180.359375 199.726562 180.957031 200.746094 181.777344 C 205.226562 185.386719 205.933594 191.945312 202.324219 196.429688 C 198.714844 200.910156 192.152344 201.621094 187.671875 198.007812 C 186.652344 197.191406 185.832031 196.21875 185.210938 195.152344 C 185.894531 196.71875 186.957031 198.148438 188.378906 199.292969 C 191.246094 201.601562 194.917969 202.234375 198.214844 201.320312 C 196.703125 201.851562 195.058594 202.097656 193.359375 201.980469 Z M 209.136719 197.273438 C 210.214844 195.09375 213.820312 195.3125 216.726562 194.519531 C 216.933594 193.507812 217.074219 192.46875 217.148438 191.40625 C 217.21875 190.347656 217.214844 189.300781 217.144531 188.269531 C 214.371094 187.09375 210.769531 186.828125 209.992188 184.523438 C 209.210938 182.21875 211.917969 179.824219 213.410156 177.207031 C 212.839844 176.347656 212.207031 175.511719 211.507812 174.710938 C 210.808594 173.910156 210.066406 173.171875 209.289062 172.492188 C 206.496094 173.621094 203.761719 175.980469 201.582031 174.902344 C 199.398438 173.820312 199.621094 170.21875 198.828125 167.3125 C 197.8125 167.105469 196.777344 166.960938 195.714844 166.890625 C 194.65625 166.820312 193.605469 166.824219 192.574219 166.890625 C 191.398438 169.664062 191.136719 173.265625 188.832031 174.046875 C 186.523438 174.824219 184.132812 172.117188 181.515625 170.625 C 180.65625 171.195312 179.820312 171.828125 179.019531 172.527344 C 178.21875 173.226562 177.480469 173.96875 176.800781 174.75 C 177.929688 177.542969 180.289062 180.273438 179.210938 182.457031 C 178.128906 184.636719 174.527344 184.414062 171.621094 185.210938 C 171.414062 186.222656 171.269531 187.261719 171.199219 188.320312 C 171.128906 189.382812 171.128906 190.429688 171.199219 191.460938 C 173.972656 192.636719 177.574219 192.898438 178.355469 195.207031 C 179.132812 197.511719 176.425781 199.902344 174.933594 202.519531 C 175.503906 203.382812 176.136719 204.21875 176.835938 205.019531 C 177.535156 205.820312 178.277344 206.558594 179.058594 207.238281 C 181.851562 206.109375 184.582031 203.746094 186.765625 204.828125 C 188.945312 205.90625 188.722656 209.511719 189.519531 212.417969 C 190.53125 212.625 191.570312 212.769531 192.628906 212.839844 C 193.691406 212.910156 194.738281 212.90625 195.769531 212.835938 C 196.945312 210.0625 197.207031 206.460938 199.515625 205.683594 C 201.820312 204.90625 204.210938 207.609375 206.828125 209.101562 C 207.691406 208.535156 208.527344 207.902344 209.328125 207.203125 C 210.128906 206.5 210.867188 205.757812 211.546875 204.980469 C 210.417969 202.1875 208.054688 199.453125 209.136719 197.273438 " fill-opacity="1" fill-rule="nonzero"/></g></g></g><g clip-path="url(#0ccef48e4d)"><g clip-path="url(#39d8ff7acb)"><g clip-path="url(#f021e57547)"><path fill="#c7d9e5" d="M 221.167969 180.84375 C 220.265625 176.359375 223.167969 171.988281 227.65625 171.085938 C 232.140625 170.183594 236.511719 173.085938 237.414062 177.574219 C 237.632812 178.65625 237.628906 179.730469 237.433594 180.753906 C 237.746094 178.273438 236.804688 175.6875 234.714844 174.003906 C 233.746094 173.222656 232.644531 172.726562 231.507812 172.5 C 232.304688 172.757812 233.066406 173.164062 233.757812 173.71875 C 236.804688 176.171875 237.28125 180.625 234.832031 183.671875 C 232.378906 186.714844 227.925781 187.195312 224.878906 184.742188 C 224.1875 184.1875 223.628906 183.527344 223.207031 182.804688 C 223.671875 183.867188 224.394531 184.835938 225.359375 185.617188 C 227.453125 187.300781 230.175781 187.671875 232.535156 186.835938 C 232.027344 187.050781 231.488281 187.21875 230.925781 187.332031 C 226.4375 188.234375 222.070312 185.332031 221.167969 180.84375 Z M 241.070312 189.605469 C 241.535156 189.078125 241.972656 188.511719 242.375 187.90625 C 242.777344 187.304688 243.128906 186.683594 243.4375 186.046875 C 242.191406 184.410156 240.148438 183.035156 240.46875 181.40625 C 240.789062 179.777344 243.203125 179.277344 244.972656 178.230469 C 244.925781 177.527344 244.835938 176.820312 244.691406 176.109375 C 244.550781 175.398438 244.359375 174.707031 244.128906 174.042969 C 242.09375 173.761719 239.675781 174.238281 238.75 172.859375 C 237.820312 171.480469 239.175781 169.417969 239.6875 167.429688 C 239.160156 166.964844 238.59375 166.527344 237.988281 166.125 C 237.386719 165.722656 236.765625 165.371094 236.128906 165.0625 C 234.492188 166.304688 233.117188 168.351562 231.488281 168.03125 C 229.859375 167.710938 229.359375 165.296875 228.3125 163.527344 C 227.609375 163.570312 226.902344 163.664062 226.191406 163.804688 C 225.480469 163.949219 224.789062 164.140625 224.121094 164.371094 C 223.84375 166.40625 224.316406 168.824219 222.9375 169.75 C 221.558594 170.675781 219.5 169.324219 217.511719 168.808594 C 217.046875 169.339844 216.609375 169.90625 216.207031 170.507812 C 215.804688 171.113281 215.453125 171.734375 215.144531 172.371094 C 216.386719 174.007812 218.433594 175.382812 218.113281 177.011719 C 217.792969 178.640625 215.378906 179.140625 213.609375 180.183594 C 213.652344 180.890625 213.746094 181.597656 213.886719 182.308594 C 214.03125 183.019531 214.222656 183.710938 214.453125 184.375 C 216.488281 184.652344 218.90625 184.179688 219.832031 185.558594 C 220.757812 186.9375 219.40625 189 218.890625 190.988281 C 219.421875 191.453125 219.988281 191.890625 220.59375 192.292969 C 221.195312 192.695312 221.816406 193.046875 222.453125 193.355469 C 224.085938 192.113281 225.464844 190.066406 227.09375 190.386719 C 228.722656 190.707031 229.222656 193.121094 230.265625 194.890625 C 230.972656 194.847656 231.679688 194.753906 232.390625 194.609375 C 233.101562 194.46875 233.792969 194.277344 234.457031 194.046875 C 234.734375 192.011719 234.261719 189.59375 235.640625 188.667969 C 237.019531 187.742188 239.082031 189.09375 241.070312 189.605469 " fill-opacity="1" fill-rule="nonzero"/></g></g></g></svg>